<?xml version="1.0" encoding="utf-8"?>
<!-- Generator: Adobe Illustrator 16.0.0, SVG Export Plug-In . SVG Version: 6.00 Build 0)  -->
<!DOCTYPE svg PUBLIC "-//W3C//DTD SVG 1.1//EN" "http://www.w3.org/Graphics/SVG/1.1/DTD/svg11.dtd">
<svg version="1.1" id="_x3C_Layer_x3E__copy" xmlns="http://www.w3.org/2000/svg" xmlns:xlink="http://www.w3.org/1999/xlink"
	 x="0px" y="0px" width="316.238px" height="187.256px" viewBox="0 0 316.238 187.256" enable-background="new 0 0 316.238 187.256"
	 xml:space="preserve">
<path opacity="0.3" d="M225.11,187.256c-20.636,0-40.105-6.766-56.333-19.57c-0.403-0.252-0.779-0.551-1.117-0.89
	c-5.518-4.493-10.504-9.621-14.83-15.25c-0.324-0.337-0.605-0.702-0.841-1.093c-1.833-2.463-3.563-5.056-5.164-7.74h-26.487
	l-0.427,0.943c-4.894,10.766-12.287,16.221-21.978,16.221c-0.725,0-1.469-0.035-2.213-0.104c-6.381-0.601-11.971-3.661-15.744-8.617
	c-1.911-2.512-3.264-5.405-3.977-8.442H18.5c-8.547,0-15.5-6.953-15.5-15.5v-55.75c0-8.547,6.953-15.5,15.5-15.5h47.626
	c0.294-0.533,0.613-1.058,0.956-1.571c4.105-6.158,11.568-10.137,19.013-10.137c2.028,0,3.99,0.271,5.87,0.809
	c4.683-4.763,11.15-7.518,17.953-7.518c6.722,0,13.135,2.729,17.838,7.457c2.307-0.85,4.695-1.277,7.139-1.277
	c0.927,0,1.864,0.064,2.785,0.191c3.665,0.505,7.148,1.914,10.123,4.035C164.422,21.298,193.472,5,225.11,5
	c10.434,0,20.698,1.773,30.511,5.271l0.255,0.086c10.532,3.791,20.188,9.447,28.723,16.822c0.414,0.282,0.792,0.611,1.124,0.979
	c19.397,17.317,30.516,42.067,30.516,67.97C316.238,146.376,275.358,187.256,225.11,187.256z"/>
<path fill="#FFFFFF" d="M222.11,182.256c-20.636,0-40.105-6.766-56.333-19.57c-0.403-0.252-0.779-0.551-1.117-0.89
	c-5.518-4.493-10.504-9.621-14.83-15.25c-0.324-0.337-0.605-0.702-0.841-1.093c-1.833-2.463-3.563-5.056-5.164-7.74h-26.487
	l-0.427,0.943c-4.894,10.766-12.287,16.221-21.978,16.221c-0.725,0-1.469-0.035-2.213-0.104c-6.381-0.601-11.971-3.661-15.744-8.617
	c-1.911-2.512-3.264-5.405-3.977-8.442H15.5c-8.547,0-15.5-6.953-15.5-15.5v-55.75c0-8.547,6.953-15.5,15.5-15.5h47.626
	c0.294-0.533,0.613-1.058,0.956-1.571c4.105-6.158,11.568-10.137,19.013-10.137c2.028,0,3.99,0.271,5.87,0.809
	c4.683-4.763,11.15-7.518,17.953-7.518c6.722,0,13.135,2.729,17.838,7.457c2.307-0.85,4.695-1.277,7.139-1.277
	c0.927,0,1.864,0.064,2.785,0.191c3.665,0.505,7.148,1.914,10.123,4.035C161.422,16.298,190.472,0,222.11,0
	c10.434,0,20.698,1.773,30.511,5.271l0.255,0.086c10.532,3.791,20.188,9.447,28.723,16.822c0.414,0.282,0.792,0.611,1.124,0.979
	c19.397,17.317,30.516,42.067,30.516,67.97C313.238,141.376,272.358,182.256,222.11,182.256z"/>
<path fill="#EFA433" d="M148.346,55.963c-0.239-0.818-0.554-1.613-0.922-2.387C161.206,26.276,189.498,7.5,222.11,7.5
	c7.819,0,15.381,1.102,22.564,3.118c-40.347,5.125-63.34,19.514-75.645,30.969c-5.573,5.188-9.487,10.191-12.195,14.376H148.346z
	 M159.867,55.963h58.003c15.676-12.514,34.734-23.52,57.212-29.494c-7.277-5.973-15.578-10.741-24.595-14.004
	c-43.015,4.372-67.035,19.165-79.614,30.822C166.019,47.786,162.454,52.171,159.867,55.963z M149.602,132.713
	c1.385,2.405,2.884,4.733,4.493,6.981c0.691-1.564,1.779-3.943,3.284-6.981H149.602z M267.5,55.963c5.79,0,10.5,4.71,10.5,10.5
	v23.816c10.666-36.224,0.99-58.317-0.755-61.847c-0.063,0.028-0.117,0.072-0.187,0.09c-21.502,5.484-39.869,15.685-55.14,27.44
	H267.5z M160.172,132.713c-2.332,4.643-3.779,7.936-4.36,9.302c4.029,5.236,8.658,9.984,13.792,14.138
	c5.229,0.164,53.06,0.939,83.095-23.439H160.172z M281.628,32.453c3.495,10.02,8.185,32.739-3.628,65.973v23.787
	c0,5.79-4.71,10.5-10.5,10.5h-10.933c-11.071,9.795-25.981,17.06-44.244,21.426c-16.845,4.027-32.304,4.563-39.336,4.563
	c-0.022,0-0.042,0-0.064,0c13.814,10.084,30.813,16.055,49.188,16.055c46.112,0,83.628-37.516,83.628-83.628
	C305.738,68.286,296.524,47.562,281.628,32.453z"/>
<path d="M279.109,26.637c-0.125-0.19-0.295-0.325-0.486-0.421c-7.99-6.965-17.262-12.491-27.425-16.149
	c-0.085-0.03-0.171-0.056-0.256-0.086C241.923,6.766,232.221,5,222.11,5c-33.02,0-61.742,18.688-76.191,46.032
	c-0.071-0.099-0.132-0.203-0.206-0.301c-2.797-3.719-7.069-6.221-11.72-6.861c-0.693-0.096-1.399-0.145-2.1-0.145
	c-2.941,0-5.772,0.82-8.464,2.447c-3.716-5.271-9.868-8.627-16.513-8.627c-6.68,0-12.733,3.244-16.439,8.475
	c-2.23-1.155-4.742-1.766-7.383-1.766c-5.819,0-11.649,3.105-14.853,7.91c-0.809,1.213-1.436,2.482-1.879,3.798H15.5
	c-5.79,0-10.5,4.71-10.5,10.5v55.75c0,5.79,4.71,10.5,10.5,10.5h61.919c-0.002,3.658,1.246,7.403,3.537,10.414
	c2.916,3.831,7.26,6.199,12.23,6.667c0.585,0.055,1.173,0.083,1.748,0.083c11.385,0,15.927-9.992,17.422-13.282l1.757-3.882h32.605
	c1.937,3.497,4.101,6.851,6.488,10.029c0.077,0.183,0.208,0.334,0.365,0.464c4.222,5.543,9.1,10.557,14.517,14.933
	c0.129,0.166,0.291,0.299,0.487,0.384c14.712,11.711,33.313,18.733,53.535,18.733c47.491,0,86.128-38.637,86.128-86.128
	C308.238,65.479,296.956,42.429,279.109,26.637z M277.245,28.433c1.745,3.529,11.421,25.623,0.755,61.847V66.463
	c0-5.79-4.71-10.5-10.5-10.5h-45.581c15.271-11.756,33.638-21.956,55.14-27.44C277.128,28.505,277.182,28.461,277.245,28.433z
	 M275.082,26.469c-22.478,5.975-41.536,16.98-57.212,29.494h-58.003c2.587-3.792,6.151-8.177,11.006-12.676
	c12.579-11.657,36.6-26.45,79.614-30.822C259.504,15.728,267.805,20.496,275.082,26.469z M222.11,7.5
	c7.819,0,15.381,1.102,22.564,3.118c-40.347,5.125-63.34,19.514-75.645,30.969c-5.573,5.188-9.487,10.191-12.195,14.376h-8.489
	c-0.239-0.818-0.554-1.613-0.922-2.387C161.206,26.276,189.498,7.5,222.11,7.5z M145.75,128.213h-1.362H111.21
	c-0.669,1.478-1.353,2.988-2.054,4.538l-0.9,1.988c-1.447,3.183-4.836,10.638-13.323,10.638c0,0,0,0-0.001,0
	c-0.428,0-0.869-0.021-1.323-0.063c-3.706-0.349-6.927-2.093-9.073-4.912c-2.11-2.772-3.027-6.357-2.452-9.589
	c0.098-0.552,0.367-1.451,0.762-2.6H15.5c-3.313,0-6-2.687-6-6v-55.75c0-3.313,2.687-6,6-6h54.576
	c0.066-1.953,0.636-3.891,1.91-5.802c2.392-3.588,6.752-5.906,11.108-5.906c3.26,0,6.234,1.282,8.375,3.61
	c0.162,0.177,0.338,0.38,0.521,0.597c2.017-6.322,7.943-10.916,14.926-10.916c7.06,0,13.039,4.695,14.991,11.127
	c2.74-2.847,6.048-4.947,9.986-4.947c0.494,0,0.993,0.033,1.483,0.102c3.473,0.479,6.659,2.342,8.74,5.109
	c0.585,0.777,1.052,1.611,1.425,2.477c0.236,0.546,0.441,1.102,0.589,1.672c0.212,0.814,0.324,1.65,0.353,2.493
	c0.004,0.128,0.002,0.257,0.002,0.385h9.696h2.881h55.383h3.861H267.5c3.313,0,6,2.687,6,6v36.788v6.473v12.489c0,3.313-2.687,6-6,6
	h-6.278h-3.491h-95.232h-2.826h-12.488H145.75z M149.602,132.713h7.777c-1.505,3.038-2.593,5.417-3.284,6.981
	C152.486,137.446,150.987,135.118,149.602,132.713z M169.604,156.152c-5.134-4.153-9.763-8.901-13.792-14.138
	c0.581-1.366,2.028-4.659,4.36-9.302h92.526C222.663,157.092,174.833,156.316,169.604,156.152z M222.11,174.756
	c-18.374,0-35.373-5.971-49.188-16.055c0.022,0,0.042,0,0.064,0c7.032,0,22.491-0.535,39.336-4.563
	c18.263-4.366,33.173-11.631,44.244-21.426H267.5c5.79,0,10.5-4.71,10.5-10.5V98.426c11.813-33.233,7.123-55.953,3.628-65.973
	c14.896,15.108,24.11,35.833,24.11,58.675C305.738,137.24,268.223,174.756,222.11,174.756z M71.5,104.213h3.188l-1.125,16.938
	H16.292v-2.313v-0.5c0,0,2.664,0,6.708,0V72.463c-4.021,0-6.708,0-6.708,0v-2h55.167l1.458,12.417H69.5
	c0,0-4.167-10.417-15.125-10.417c-3.274,0-7.994,0-13,0v20.563c1.15,0,2.758,0,4.875,0c4.938,0,8.875-2.438,8.625-8.188h3.188v19.38
	h-3.188c0.25-5.75-3.688-8.188-8.625-8.188c-2.117,0-3.725,0-4.875,0v22.308c4.857,0,9.618,0,13.438,0
	C68.25,118.338,71.5,104.213,71.5,104.213z M166.745,120.547c2.844,0,5.291,0,6.922,0c7.833,0,29.833,0.333,29.833-11.917
	c0-8.093-11.908-11.819-19.993-13.418c-0.988-0.195-1.915-0.358-2.76-0.494c-2.706-0.435-4.539-0.588-4.539-0.588
	s2.248-0.053,5.349-0.485c1.121-0.156,2.352-0.362,3.631-0.634c6.293-1.337,13.706-4.259,14.438-10.631
	c0.227-1.972-0.222-3.627-1.136-5.027c-0.448-0.687-1.009-1.311-1.666-1.877c-5.645-4.87-18.168-5.513-23.739-5.513
	c-6.311,0-25.714,0-31.881,0c-0.119,0-0.23,0-0.338,0c-0.391,0-0.72,0-0.97,0c-0.385,0-0.602,0-0.602,0v2.188c0,0,0.037,0,0.097,0
	c0.024,0,0.052,0,0.084,0c0.218,0,0.63,0,1.208,0c1.176,0,3.02,0,5.236,0v46.563c-0.996,0-1.917,0-2.738,0c-0.484,0-0.929,0-1.336,0
	c-0.5,0-0.938,0-1.303,0c-0.792,0-1.248,0-1.248,0v1.834c0,0,0.69,0,1.87,0c0.386,0,0.828,0,1.314,0c0.421,0,0.877,0,1.364,0
	c4.983,0,13.175,0,20.025,0C164.859,120.547,165.822,120.547,166.745,120.547z M164.667,72.15c2.704,0,4.87,0,5.958,0
	c4.875,0,10.125,2.375,10.125,10.688s-7.125,10.688-11.313,10.688c-2.302,0-3.845,0-4.771,0V72.15z M164.667,95.523
	c1.63,0,3.512,0,5.521,0c3.016,0,6.043,0.552,8.344,2.218c0.673,0.487,1.279,1.074,1.809,1.768c1.335,1.75,2.16,4.193,2.16,7.579
	c0,8.881-7.276,11.39-14.673,11.604c-0.358,0.01-0.718,0.021-1.077,0.021c-0.549,0-1.171,0-1.829,0c-0.087,0-0.166,0-0.254,0V95.523
	z M203.5,120.963h18.25v-2.313h-8.285l6.768-12.625h18.651l5.832,12.625h-6.903v2.313h26.255h3.083h0.725v-1.044v-1.269h-2.158
	h-2.821l-22.833-48.313h-5.875l-25.044,48.313H203.5V120.963z M230.25,87.338l7.276,15.75h-15.72L230.25,87.338z"/>
<path fill="#C5322F" d="M97.137,60.463c-0.246-0.876-0.387-1.796-0.387-2.751c0-5.615,4.552-10.166,10.167-10.166
	s10.167,4.551,10.167,10.166c0,0.955-0.141,1.875-0.387,2.751c-1.201,4.277-5.119,7.417-9.78,7.417S98.337,64.74,97.137,60.463z
	 M132.625,53.775c-2.912-0.401-6.027,1.584-9.537,6.688c-0.859,1.249-1.741,2.678-2.65,4.313
	c-4.625,8.313-9.625,18.125-12.688,18.438s-4.438-2.625-6.688-6.688c-1.65-2.979-6.579-10.798-10.292-16.063
	c-1.349-1.913-2.539-3.492-3.351-4.375c-3.045-3.313-8.608-1.751-10.858,1.624c-0.575,0.863-0.897,1.756-0.966,2.751
	c-0.2,2.898,1.78,6.674,6.153,13.188c5.875,8.75,12.688,20.875,14.688,24.313s0.875,8.063,0.063,11.188
	c0,0-5.369,12.516-7.823,19.063c-0.633,1.688-1.075,2.986-1.177,3.563c-0.5,2.813,1.313,7.563,6.625,8.063s7.563-3.938,9.125-7.375
	c0.271-0.598,0.957-2.116,1.922-4.25c4.585-10.137,15.631-34.481,20.244-43.5c5.583-10.917,12.958-19.5,13.521-23.375
	c0.043-0.297,0.057-0.587,0.057-0.875C138.993,56.992,135.973,54.237,132.625,53.775z"/>
</svg>
