<?xml version="1.0" standalone="no"?>
<!DOCTYPE svg PUBLIC "-//W3C//DTD SVG 20010904//EN"
 "http://www.w3.org/TR/2001/REC-SVG-20010904/DTD/svg10.dtd">
<svg version="1.0" xmlns="http://www.w3.org/2000/svg"
 width="300.000000pt" height="300.000000pt" viewBox="0 0 300.000000 300.000000"
 preserveAspectRatio="xMidYMid meet">
<metadata>
Created by potrace 1.10, written by Peter Selinger 2001-2011
</metadata>
<g transform="translate(0.000000,300.000000) scale(0.100000,-0.100000)"
fill="#000000" stroke="none">
<path d="M1395 2664 c-64 -15 -147 -40 -180 -54 -78 -32 -230 -110 -280 -143
-78 -53 -260 -235 -312 -313 -52 -77 -129 -229 -138 -274 -4 -19 -11 -41 -15
-50 -30 -57 -62 -278 -56 -377 l5 -72 -142 -3 -142 -3 0 -300 0 -300 207 0
207 0 30 29 c17 17 31 25 31 19 0 -6 33 -53 74 -105 105 -133 261 -255 421
-329 39 -17 78 -36 87 -40 47 -24 251 -66 354 -73 98 -8 333 9 349 25 5 5 17
9 27 9 10 0 18 5 18 10 0 13 -10 12 -90 -1 -83 -14 -322 -14 -349 0 -11 6 -32
11 -47 11 -75 0 -327 107 -432 183 -105 77 -272 245 -272 274 0 24 29 13 45
-16 22 -44 162 -180 235 -230 187 -128 432 -202 659 -200 81 0 264 28 346 51
126 37 364 164 365 196 0 15 -2 15 -42 -2 -80 -34 -126 -41 -273 -41 -166 0
-287 12 -380 39 -11 3 -41 11 -67 17 -27 6 -48 15 -48 20 0 5 10 23 22 40 16
21 22 44 22 84 1 58 13 68 55 45 35 -18 148 -32 256 -30 112 1 179 12 228 37
24 12 28 12 34 -3 3 -9 1 -19 -6 -23 -15 -10 -3 -101 15 -101 20 0 124 100
130 126 7 29 9 29 62 4 24 -12 42 -27 42 -37 0 -46 -185 -173 -251 -173 -15 0
-31 -5 -35 -11 -5 -9 7 -10 42 -7 115 12 232 86 274 173 19 40 50 62 50 35 0
-12 -48 -100 -66 -121 -17 -19 -18 -29 -1 -28 16 1 127 128 181 209 41 61 96
156 96 165 0 2 -20 7 -44 10 -32 5 -43 11 -39 21 7 20 40 17 52 -3 8 -14 12
-15 22 -6 9 9 8 15 -4 27 -25 25 -57 140 -57 205 0 33 7 90 16 128 19 80 15
234 -7 273 -19 35 -58 84 -63 79 -2 -2 5 -32 17 -67 21 -67 20 -94 -21 -342
-4 -25 -4 -76 0 -115 4 -40 3 -74 -2 -79 -14 -14 -32 44 -25 82 9 49 -15 37
-33 -17 -8 -23 -21 -45 -29 -48 -20 -8 -26 2 -14 24 69 125 103 260 102 407 0
56 -4 103 -10 109 -8 8 -11 -7 -11 -50 0 -60 -15 -93 -41 -93 -6 0 -8 -4 -4
-10 3 -5 13 -6 22 -3 14 6 16 -2 10 -72 -4 -43 -11 -83 -16 -89 -4 -6 -11 -24
-14 -41 -3 -16 -20 -62 -38 -102 -27 -60 -37 -72 -61 -77 -16 -3 -43 -19 -61
-36 -36 -34 -43 -36 -50 -15 -4 8 -23 23 -45 34 -32 16 -59 20 -161 20 l-122
0 -18 -30 c-16 -26 -20 -28 -31 -14 -49 59 -262 60 -301 2 -4 -5 -18 3 -32 17
-25 25 -31 26 -132 26 -97 0 -105 1 -105 19 0 11 -5 23 -10 26 -6 4 -8 11 -5
16 8 12 -82 101 -125 123 -40 20 -130 32 -157 21 -13 -5 2 -12 52 -22 80 -16
145 -51 173 -91 20 -28 54 -95 50 -96 -2 -1 -13 -7 -25 -14 -35 -19 -40 -15
-52 32 -16 66 -77 122 -149 137 -31 6 -60 16 -64 23 -4 6 -6 -3 -4 -21 2 -18
12 -44 22 -59 11 -14 27 -40 37 -57 l17 -32 -70 -3 c-47 -2 -83 -9 -106 -22
-42 -24 -44 -24 -44 -5 0 27 -73 32 -146 10 -65 -20 -12 111 71 175 29 22 57
40 63 40 6 0 14 11 18 25 7 28 11 29 48 15 18 -6 35 -6 54 2 15 6 32 12 37 13
6 0 17 4 25 7 75 30 220 33 350 9 67 -13 239 -72 275 -95 11 -7 50 -23 88 -36
37 -13 67 -27 67 -31 0 -5 16 -11 35 -15 19 -3 38 -10 41 -15 7 -12 56 -11
110 2 34 9 46 17 50 35 9 36 -12 54 -65 54 -57 0 -85 14 -50 25 92 30 224 202
167 219 -54 16 -53 16 -30 32 34 24 55 70 42 94 -14 26 -38 25 -97 -4 -27 -14
-68 -29 -92 -35 -23 -5 -45 -12 -48 -14 -13 -14 -86 27 -128 72 -45 49 -50 51
-99 51 -29 0 -58 -6 -64 -12 -8 -8 -35 -12 -72 -10 -67 4 -136 -22 -168 -63
-11 -13 -22 -22 -25 -19 -3 3 -11 -3 -18 -14 -12 -19 -15 -19 -41 -6 -21 11
-37 12 -63 5 -21 -6 -37 -6 -41 0 -3 5 5 9 17 9 12 0 61 18 108 41 47 23 91
42 96 43 6 1 30 12 55 23 50 23 97 39 150 51 49 11 59 44 33 103 -24 55 -75
84 -126 74 -26 -6 -233 -101 -321 -147 -33 -17 -125 -22 -166 -8 -35 12 -42
11 -59 -4 -18 -16 -20 -16 -35 6 -25 36 -21 110 9 142 26 28 72 35 94 14 8 -9
43 -13 99 -13 74 0 98 4 155 29 75 32 102 66 91 111 -3 14 -2 25 2 24 5 -1 11
-1 14 1 3 1 16 3 30 6 36 6 110 38 110 47 0 4 5 7 10 7 6 0 29 14 53 31 39 28
46 30 97 24 30 -4 64 -7 74 -6 14 0 16 -3 7 -12 -16 -16 -14 -42 7 -59 12 -11
48 -17 119 -21 56 -3 108 -9 115 -13 7 -5 21 -10 31 -11 10 -2 38 -12 62 -23
24 -11 49 -20 54 -20 6 0 11 -4 11 -10 0 -5 7 -10 15 -10 8 0 15 -4 15 -9 0
-5 10 -13 23 -17 30 -9 94 -59 139 -108 74 -81 122 -221 119 -351 -1 -38 0
-39 15 -20 13 16 15 35 10 95 -14 197 -129 345 -354 456 -146 72 -167 78 -276
78 -58 1 -91 5 -93 13 -6 16 49 54 132 94 67 33 155 104 155 127 0 6 -7 18
-16 27 -15 14 -20 11 -68 -37 -47 -49 -178 -128 -222 -134 -9 -2 -43 2 -76 8
-58 10 -60 10 -96 -20 -57 -45 -152 -92 -199 -99 -55 -7 -70 -24 -54 -60 16
-34 -4 -56 -76 -82 -78 -28 -152 -35 -195 -16 -57 23 -120 20 -151 -9 -36 -33
-51 -93 -36 -148 12 -48 93 -146 104 -127 4 6 2 16 -4 22 -12 12 -15 50 -5 60
4 3 24 -3 46 -14 64 -33 143 -10 383 111 115 58 141 61 176 23 49 -56 63 -99
29 -90 -18 5 -77 -11 -125 -33 -11 -5 -46 -20 -77 -34 -32 -14 -84 -38 -115
-52 -32 -14 -68 -30 -80 -36 -13 -6 -44 -11 -70 -11 -42 0 -50 4 -80 38 l-33
38 0 -39 c0 -44 28 -97 61 -114 21 -12 45 -10 121 9 42 10 90 -9 139 -55 25
-24 49 -32 49 -16 0 4 -16 23 -35 42 -38 36 -48 68 -17 51 9 -5 27 -19 39 -30
12 -12 27 -21 33 -21 20 0 10 27 -15 40 -39 21 -31 44 25 68 55 24 109 29 127
11 9 -9 19 -6 41 10 19 13 45 21 70 21 36 0 45 -5 77 -44 49 -60 93 -80 162
-73 30 3 60 10 66 15 7 5 33 16 60 26 26 10 47 22 47 27 0 5 7 9 15 9 46 0
-23 -83 -82 -99 -21 -6 -48 -11 -60 -11 -24 0 -31 -14 -13 -25 5 -3 46 -6 90
-7 44 0 80 -3 80 -6 0 -2 -16 -26 -35 -53 -39 -52 -142 -127 -187 -136 -15 -3
-28 -11 -28 -17 0 -18 89 -46 148 -46 55 0 70 -15 26 -26 -38 -10 -146 2 -180
20 -45 23 -133 62 -194 86 -30 11 -64 25 -75 30 -135 63 -383 89 -514 54 -36
-10 -76 -24 -88 -32 -18 -11 -25 -11 -45 1 -36 22 -109 39 -156 35 -47 -3 -58
-21 -15 -26 31 -3 89 -28 98 -41 3 -5 -8 -13 -23 -19 -60 -21 -149 -129 -176
-214 -4 -13 -16 -18 -41 -18 l-35 0 0 58 c0 49 -5 66 -29 99 -16 22 -43 45
-60 53 l-31 12 1 127 c1 136 7 193 34 286 9 33 21 76 26 95 11 47 60 147 122
250 68 112 231 278 349 354 116 75 247 132 348 151 61 12 110 28 110 37 0 12
-46 9 -115 -8z m-535 -298 c0 -2 -8 -10 -17 -17 -16 -13 -17 -12 -4 4 13 16
21 21 21 13z m-114 -118 c-15 -21 -63 -95 -93 -144 -37 -59 -89 -177 -110
-249 -43 -147 -44 -156 -52 -325 -5 -119 -9 -145 -21 -145 -8 0 -17 11 -20 24
-9 42 7 246 25 323 17 73 71 234 85 253 4 6 22 37 40 69 29 52 149 216 159
216 2 0 -4 -10 -13 -22z m446 -601 c9 -1 14 -5 12 -9 -8 -13 -39 -9 -60 8 -18
15 -18 15 6 9 14 -4 33 -7 42 -8z m1475 -209 c-3 -7 -5 -2 -5 12 0 14 2 19 5
13 2 -7 2 -19 0 -25z m-10 -70 c-3 -8 -6 -5 -6 6 -1 11 2 17 5 13 3 -3 4 -12
1 -19z m-2132 -29 c79 -37 85 -57 85 -274 l0 -187 -39 -39 -39 -39 -171 -1
c-94 -1 -176 -2 -182 -3 -8 -1 -12 81 -13 276 l-2 278 156 3 c85 1 156 4 158
5 1 1 22 -7 47 -19z m632 -68 c35 -25 83 -101 83 -131 0 -14 -22 -12 -45 6
-20 15 -21 18 -24 50 0 8 -19 33 -41 55 -22 22 -40 42 -40 44 0 13 31 2 67
-24z m1509 -156 c6 -25 8 -45 5 -45 -15 1 -39 49 -34 69 8 33 17 25 29 -24z
m-1382 9 c3 -9 2 -22 -2 -30 -7 -13 -10 -13 -20 -1 -12 15 -7 47 8 47 4 0 11
-7 14 -16z m-539 -30 c-4 -26 -2 -34 8 -34 8 0 18 11 21 24 7 27 49 46 103 46
l34 0 -3 -47 -3 -48 -61 0 c-89 0 -94 -7 -94 -125 l0 -97 -55 -2 -55 -1 0 153
c0 85 2 156 4 158 3 2 28 4 56 5 l52 1 -7 -33z m451 19 c45 -26 54 -55 54
-183 l0 -120 -55 0 c-42 0 -55 3 -55 15 0 8 -4 15 -9 15 -5 0 -11 -7 -15 -15
-8 -23 -93 -20 -134 5 -66 40 -67 104 -2 148 30 21 43 23 98 19 l62 -5 0 31
c0 38 -24 56 -73 57 -45 0 -77 -15 -77 -35 0 -10 -10 -15 -30 -15 -19 0 -30 5
-30 14 0 19 39 66 63 75 31 11 179 7 203 -6z m412 -202 l-3 -219 -31 -39 -31
-38 -101 -3 c-100 -3 -101 -3 -136 28 -31 28 -56 79 -56 117 0 7 14 11 38 9
30 -1 37 -6 38 -24 2 -40 22 -52 85 -52 70 0 84 15 91 98 5 54 0 63 -22 37
-15 -18 -91 -20 -123 -4 -60 31 -67 46 -67 149 0 92 1 97 28 122 35 33 45 35
180 37 l114 1 -4 -219z m285 210 c56 -21 67 -47 67 -149 0 -106 -7 -125 -53
-146 -39 -19 -162 -19 -197 -1 -56 29 -64 48 -61 147 3 105 10 124 54 143 37
16 154 19 190 6z m227 -8 c0 -15 1 -15 18 0 41 38 164 9 184 -42 7 -20 12
-144 8 -249 0 -9 -15 -12 -52 -10 l-53 3 -2 110 c-1 61 -2 116 -3 123 0 7 -11
17 -25 24 -19 9 -29 7 -50 -6 -26 -17 -26 -18 -24 -134 l3 -117 -55 -3 -54 -3
0 161 0 160 53 0 c42 0 52 -3 52 -17z m492 -22 c37 -41 36 -61 -1 -61 -21 0
-32 6 -36 20 -3 11 -18 23 -31 26 -30 8 -77 -11 -72 -29 3 -6 38 -30 78 -53
80 -44 98 -71 81 -117 -15 -39 -55 -60 -123 -64 -84 -4 -138 28 -138 81 0 26
53 21 65 -6 17 -40 95 -33 95 8 0 8 -28 28 -62 45 -81 40 -98 56 -98 89 0 31
33 78 64 90 11 5 50 7 86 5 57 -3 67 -6 92 -34z m-1502 -58 c0 -5 -20 -9 -45
-11 -26 -2 -45 2 -45 8 0 5 20 10 45 10 25 0 45 -3 45 -7z m1080 -104 c0 -81
-3 -99 -15 -99 -12 0 -15 18 -15 98 0 54 3 102 6 105 17 17 24 -13 24 -104z
m-1249 71 c4 0 -3 -16 -16 -36 -14 -20 -25 -49 -25 -63 0 -32 35 -91 54 -91 7
0 19 -7 26 -15 10 -12 39 -15 139 -16 69 0 120 -3 114 -6 -31 -12 4 -111 58
-162 32 -31 32 -31 145 -31 62 0 115 4 118 9 3 5 43 -4 88 -20 46 -16 97 -29
115 -29 17 0 34 -4 37 -9 12 -19 282 -30 401 -16 l60 6 -60 -31 c-72 -37 -161
-70 -190 -70 -12 0 -25 -4 -30 -9 -15 -14 -188 -35 -290 -35 -110 0 -285 20
-299 34 -5 5 -21 10 -35 10 -15 0 -39 7 -55 15 -15 8 -34 15 -41 15 -13 0
-149 66 -170 82 -5 4 -34 27 -64 50 -29 24 -65 52 -80 62 -14 11 -56 56 -93
102 l-68 83 0 79 c0 83 7 96 47 86 10 -2 32 0 48 5 17 5 36 7 43 5 8 -2 18 -4
23 -4z m1714 0 c3 -5 15 -10 26 -10 20 0 20 -1 2 -30 l-17 -30 -19 30 c-10 17
-24 30 -30 30 -7 0 -5 5 3 10 19 12 27 12 35 0z m-265 -55 c10 -12 10 -15 -4
-15 -9 0 -16 7 -16 15 0 8 2 15 4 15 2 0 9 -7 16 -15z m-382 -152 c13 -11 2
-13 -59 -12 -41 1 -62 4 -48 6 15 2 37 15 50 29 21 23 24 23 32 7 5 -10 17
-24 25 -30z m-708 29 c0 -17 72 -42 120 -42 52 0 53 -1 44 -37 -5 -20 -13 -23
-51 -23 -41 0 -46 3 -56 30 -8 20 -23 34 -44 42 -30 11 -46 38 -23 38 6 0 10
-4 10 -8z m-565 -59 c3 -10 32 -47 65 -83 33 -36 60 -68 60 -72 0 -5 6 -8 14
-8 7 0 21 -11 30 -25 9 -14 41 -42 71 -62 30 -19 55 -40 55 -45 0 -14 -127 71
-174 117 -12 11 -30 27 -41 35 -20 15 -115 123 -129 148 -5 8 1 12 18 12 15 0
27 -7 31 -17z m1537 -15 c-23 -24 -35 -29 -43 -21 -20 20 7 53 44 53 l32 0
-33 -32z"/>
<path d="M310 1076 l0 -216 55 0 c92 0 95 6 95 213 0 202 -1 204 -94 214 l-56
6 0 -217z m118 0 c3 -184 2 -186 -53 -186 l-30 0 3 181 3 180 37 -3 37 -3 3
-169z"/>
<path d="M1051 926 l-22 -24 22 -21 c40 -37 89 -17 89 38 0 29 -3 31 -33 31
-22 0 -41 -8 -56 -24z"/>
<path d="M1418 1069 c-15 -8 -18 -25 -18 -96 0 -89 10 -112 51 -113 36 0 49
33 49 128 l0 92 -32 0 c-18 0 -41 -5 -50 -11z m44 -81 c5 -65 0 -88 -19 -88
-11 0 -13 15 -11 70 3 85 24 98 30 18z"/>
<path d="M1772 1062 c-14 -14 -18 -33 -17 -94 1 -83 13 -108 50 -108 35 0 43
19 46 109 3 72 1 85 -16 97 -25 19 -41 18 -63 -4z m49 -39 c5 -74 3 -110 -5
-121 -16 -22 -26 7 -26 76 0 48 3 62 15 62 8 0 15 -8 16 -17z"/>
<path d="M2384 2271 c-18 -31 -52 -51 -85 -51 -30 0 -152 32 -167 43 -7 6 -48
12 -91 15 -65 4 -84 1 -119 -17 -48 -25 -54 -35 -14 -27 62 13 107 15 146 5
23 -6 76 -18 118 -28 42 -9 80 -20 84 -24 12 -12 64 -8 95 8 43 23 90 105 60
105 -6 0 -18 -13 -27 -29z"/>
<path d="M2140 2183 c8 -2 58 -25 110 -51 76 -37 110 -61 171 -121 41 -42 90
-101 107 -132 80 -142 252 -223 445 -211 19 2 27 7 27 21 0 16 -9 18 -66 19
-37 1 -79 8 -96 17 -17 8 -37 15 -44 15 -27 0 -132 117 -178 197 -50 87 -107
145 -166 170 -19 8 -48 21 -65 29 -16 7 -50 16 -75 18 -25 2 -71 11 -103 20
-53 15 -103 21 -67 9z m274 -98 c27 -14 53 -25 58 -25 19 0 70 -57 110 -124
50 -84 86 -134 112 -159 11 -9 16 -20 11 -25 -4 -4 -10 -1 -12 6 -3 6 -11 12
-20 12 -24 0 -94 77 -150 165 -32 50 -107 128 -153 159 -37 24 -12 19 44 -9z"/>
<path d="M1573 2131 c-80 -9 -111 -48 -83 -102 18 -32 83 -26 130 13 22 17 42
39 45 50 6 18 -16 50 -32 46 -4 -1 -32 -4 -60 -7z m77 -20 c0 -16 -83 -71
-106 -71 -12 0 -27 7 -34 15 -19 23 5 45 49 46 20 0 45 4 56 9 27 12 35 12 35
1z"/>
<path d="M2700 1685 c0 -3 7 -16 15 -29 24 -36 28 -131 10 -226 -27 -139 -29
-185 -9 -258 9 -37 21 -75 26 -85 15 -30 26 -10 20 39 -5 50 7 115 45 242 28
92 27 154 -3 214 -25 51 -104 128 -104 103z m95 -222 c-2 -27 -13 -75 -24
-107 -12 -33 -21 -70 -21 -83 0 -14 -4 -22 -10 -18 -12 7 -8 45 17 165 8 41
18 88 21 105 5 28 5 28 13 7 5 -12 7 -43 4 -69z"/>
<path d="M2110 743 c-39 -16 -134 -21 -192 -10 -42 9 -51 -4 -15 -20 27 -13
153 -39 220 -47 l47 -6 -6 43 c-4 23 -9 45 -13 49 -3 4 -22 0 -41 -9z m20 -33
c0 -5 -4 -10 -10 -10 -5 0 -10 5 -10 10 0 6 5 10 10 10 6 0 10 -4 10 -10z"/>
</g>
</svg>
