<?xml version="1.0" standalone="no"?>
<!DOCTYPE svg PUBLIC "-//W3C//DTD SVG 20010904//EN"
 "http://www.w3.org/TR/2001/REC-SVG-20010904/DTD/svg10.dtd">
<svg version="1.0" xmlns="http://www.w3.org/2000/svg"
 width="700.000000pt" height="700.000000pt" viewBox="0 0 700.000000 700.000000"
 preserveAspectRatio="xMidYMid meet">
<metadata>
Created by potrace 1.11, written by Peter Selinger 2001-2013
</metadata>
<g transform="translate(0.000000,700.000000) scale(0.100000,-0.100000)"
fill="#000000" stroke="none">
<path d="M1480 6989 c-125 -17 -149 -22 -225 -40 -582 -144 -1049 -607 -1199
-1189 -13 -52 -28 -115 -31 -140 -4 -25 -11 -70 -15 -100 -5 -30 -8 -944 -8
-2030 0 -1861 1 -1981 18 -2080 32 -186 65 -296 132 -440 214 -463 616 -797
1103 -919 81 -20 103 -24 230 -40 88 -12 3934 -12 4030 -1 97 12 125 17 240
45 578 141 1046 612 1194 1201 50 198 49 150 47 2284 -1 1097 -5 2006 -9 2020
-3 13 -9 42 -12 65 -10 68 -45 196 -77 285 -165 455 -533 823 -988 988 -90 33
-218 67 -285 76 -22 3 -69 10 -105 15 -79 12 -3960 12 -4040 0z m3980 -733
c361 -77 652 -335 764 -680 14 -40 27 -89 30 -107 3 -19 9 -45 12 -59 9 -35
11 -3700 2 -3785 -17 -158 -94 -360 -185 -482 -160 -215 -407 -365 -673 -409
-62 -10 -3686 -11 -3785 -1 -454 46 -832 417 -891 875 -9 68 -11 3680 -2 3767
17 170 94 360 200 500 165 217 429 366 692 393 39 4 899 7 1911 6 1731 0 1845
-1 1925 -18z"/>
<path d="M1659 6116 c-2 -2 -22 -7 -44 -10 -79 -12 -113 -22 -205 -61 -275
-116 -482 -392 -517 -690 -10 -82 -9 -3696 1 -3740 45 -205 119 -348 242 -470
73 -73 91 -87 158 -129 79 -50 191 -98 256 -110 19 -3 46 -9 60 -13 14 -4 855
-9 1870 -10 1805 -2 1847 -2 1935 17 187 41 329 119 456 251 128 132 213 308
236 489 10 76 9 3700 -1 3745 -45 202 -115 341 -235 465 -106 109 -259 202
-389 235 -34 9 -72 19 -84 23 -24 7 -3732 15 -3739 8z m2081 -910 c14 -2 56
-7 94 -10 61 -5 113 -13 205 -31 139 -27 311 -124 424 -240 155 -160 239 -378
238 -626 -1 -309 -123 -562 -348 -723 -116 -82 -335 -162 -498 -181 -27 -3
-68 -8 -90 -10 -22 -3 -85 -7 -139 -10 -55 -3 -101 -7 -103 -9 -2 -2 83 -116
189 -252 230 -298 506 -655 660 -854 62 -80 115 -147 118 -150 3 -3 36 -47 75
-97 38 -51 74 -93 79 -93 5 0 20 10 33 22 l23 22 576 0 c317 1 578 -3 581 -8
6 -10 7 -175 1 -181 -2 -3 -348 -5 -768 -5 -640 -1 -766 1 -775 12 -16 22
-418 541 -432 558 -14 18 -289 374 -318 411 -76 100 -180 235 -184 239 -3 3
-28 34 -56 70 -27 36 -52 67 -55 70 -3 3 -45 58 -94 123 l-89 117 -47 0 c-30
0 -49 -5 -52 -12 -2 -7 -3 -367 -3 -800 l1 -788 -41 -1 c-44 0 -286 0 -297 1
-5 0 -8 776 -8 1725 l0 1725 538 -4 c295 -3 548 -7 562 -10z m2123 -409 c-1
-39 -2 -82 -2 -94 -1 -13 -7 -23 -15 -23 -9 0 -13 10 -10 33 1 17 4 60 5 95 1
38 6 62 13 62 7 0 10 -25 9 -73z m-1 -341 c-1 -91 -8 -108 -41 -99 -14 4 -16
12 -11 51 3 26 7 50 8 55 1 4 2 25 2 48 0 36 2 40 22 37 21 -3 22 -8 20 -92z
m-1 -258 c3 -100 1 -149 -5 -156 -4 -4 -28 -7 -52 -8 l-45 -1 6 46 c19 148 20
151 61 151 32 0 34 -2 35 -32z m0 -323 c1 -16 1 -59 1 -95 l1 -65 -85 -3 -86
-3 19 91 c10 51 21 95 23 99 2 3 32 6 65 6 61 0 61 0 62 -30z m0 -307 c1 -16
1 -124 0 -158 l-1 -25 -120 1 c-66 0 -123 3 -126 6 -5 5 10 66 38 156 l10 32
99 0 c72 0 99 -3 100 -12z m0 -334 c0 -13 0 -44 0 -69 0 -25 0 -58 0 -73 l-1
-28 -180 -1 c-113 0 -180 3 -180 10 0 12 47 142 60 167 9 16 24 18 155 18
l145 -1 1 -23z m0 -321 c1 -30 1 -127 0 -153 -1 -19 -8 -20 -261 -20 l-260 0
46 93 c26 50 50 94 54 97 5 3 101 5 214 5 l206 0 1 -22z m0 -325 c1 -22 1
-142 0 -163 -1 -14 -721 -13 -721 0 0 6 27 49 61 98 l62 87 298 0 299 0 1 -22z
m0 -335 c0 -18 1 -46 1 -63 0 -16 -1 -46 -1 -65 l-1 -35 -506 1 c-278 0 -504
4 -502 8 2 4 41 48 87 98 l84 90 419 0 418 0 1 -34z m-11 -621 c0 -19 -41
-127 -60 -156 l-19 -31 -960 0 c-528 0 -957 3 -953 7 4 3 36 18 72 33 56 23
181 84 285 139 27 14 119 16 833 16 441 0 802 -4 802 -8z m-225 -358 c-46 -42
-191 -121 -238 -130 -15 -2 -37 -8 -50 -13 -30 -11 -3615 -13 -3622 -1 -2 4 8
7 23 7 15 0 81 3 147 7 66 4 158 9 205 12 159 9 300 20 385 28 22 3 74 7 115
11 41 3 95 8 120 11 71 8 202 25 230 29 14 2 48 7 75 10 110 12 131 15 155 20
53 11 76 16 110 21 19 3 59 11 88 18 40 9 338 12 1178 12 l1125 -1 -46 -41z"/>
<path d="M2989 4868 c-1 -7 -2 -270 -2 -585 -2 -501 0 -572 13 -575 33 -8 652
1 745 11 200 21 338 78 443 181 211 209 209 581 -5 798 -153 155 -257 178
-840 181 -284 2 -353 -1 -354 -11z"/>
</g>
</svg>
